<svg width="357" height="269" viewBox="0 0 357 269" fill="none" xmlns="http://www.w3.org/2000/svg">
<g clip-path="url(#clip0_240_2079)">
<g clip-path="url(#clip1_240_2079)">
<g clip-path="url(#clip2_240_2079)">
<path d="M332.879 204.067C332.542 207.505 332.084 210.927 331.48 214.325C331.412 214.725 331.339 215.13 331.261 215.53C330.764 218.148 330.096 220.732 329.365 223.301C329.009 224.574 328.634 225.842 328.259 227.104C327.621 229.274 326.924 231.429 326.178 233.56C325.028 236.86 323.756 240.122 322.387 243.34C320.915 246.806 319.331 250.224 317.66 253.598C316.378 256.192 315.048 258.761 313.679 261.306C313.576 261.497 313.474 261.687 313.372 261.877C313.24 262.121 313.109 262.359 312.977 262.598C312.568 263.335 312.158 264.066 311.744 264.792C306.89 273.329 297.812 278.59 287.997 278.59L40.9896 278.561C36.945 278.561 31.3653 278.078 27.3693 272.939C27.3547 272.92 27.345 272.9 27.3352 272.876C26.5506 271.477 25.8733 270.009 25.3177 268.493C25.1618 268.074 25.0205 267.654 24.884 267.23C23.9045 264.173 23.3977 260.941 23.427 257.742C23.427 257.152 23.4513 256.562 23.4952 255.977C23.5001 255.899 23.5049 255.821 23.5147 255.743C23.5147 255.724 23.5147 255.704 23.5147 255.68C23.5683 255.032 23.6414 254.388 23.7437 253.744C23.7486 253.7 23.7583 253.652 23.7632 253.608C23.773 253.554 23.7827 253.501 23.7876 253.447C23.7973 253.403 23.8022 253.359 23.812 253.315C23.8948 252.818 23.9923 252.326 24.1092 251.838C24.1482 251.667 24.1872 251.497 24.231 251.331C24.27 251.17 24.3139 251.004 24.3577 250.843C24.3821 250.756 24.4065 250.668 24.4308 250.58C24.4503 250.512 24.4698 250.448 24.4893 250.385C24.5186 250.288 24.5478 250.19 24.5819 250.093C24.6063 250.01 24.6306 249.922 24.6599 249.839C24.7525 249.542 24.8548 249.249 24.9571 248.957C25.0254 248.766 25.0936 248.576 25.1667 248.391C25.2252 248.235 25.2885 248.079 25.347 247.928C25.3519 247.918 25.3567 247.908 25.3616 247.899C25.4152 247.762 25.4737 247.63 25.5322 247.494C25.5663 247.411 25.6004 247.328 25.6394 247.245C25.7027 247.104 25.7661 246.962 25.8294 246.826C25.8928 246.689 25.9561 246.548 26.0243 246.412C26.0292 246.397 26.039 246.382 26.0438 246.368C26.1169 246.216 26.1949 246.065 26.2729 245.914C26.3996 245.666 26.536 245.417 26.6725 245.168C26.7553 245.017 26.8382 244.871 26.9259 244.729C27.3498 243.998 27.8128 243.296 28.3098 242.618C29.9423 240.371 31.95 238.396 34.255 236.802C35.0347 236.261 35.8436 235.768 36.6916 235.32C37.3494 234.969 38.0268 234.642 38.7236 234.349C39.9712 233.823 41.2772 232.467 40.6583 230.941C40.5657 230.712 40.4731 230.473 40.3756 230.244C38.1243 224.647 36.2091 218.957 34.5913 213.209C32.6225 206.208 31.107 199.109 29.9959 191.937C29.6402 189.626 29.3575 187.31 29.148 184.984C28.7679 180.743 28.6363 176.481 28.7484 172.23C28.9823 163.249 30.3175 154.302 32.7444 145.604C32.7638 145.536 32.7833 145.463 32.8077 145.39C34.0016 141.119 35.3076 136.858 36.7354 132.635C44.4398 109.881 55.6772 88.3117 71.8754 72.4856C96.9182 48.0298 138.637 29.2394 182.012 39.8193C196.676 43.398 216.816 47.7811 238.053 71.7981C243.472 69.3116 295.351 64.4068 321.549 128.418C325.072 137.028 327.957 145.892 329.999 154.946C330.228 155.975 330.452 157.008 330.661 158.037C331.826 163.785 332.65 169.607 333.069 175.487C333.746 184.994 333.8 194.584 332.884 204.058L332.879 204.067Z" fill="#BBDCFF"/>
<path d="M101.294 161.221C98.3999 157.408 90.1156 154.707 87.3038 153.854C85.8273 153.405 83.8196 154.551 83.6051 156.126C83.5662 156.399 83.5272 156.677 83.4882 156.95C83.3079 157.306 83.186 157.711 83.1519 158.169C83.0545 159.31 82.9424 160.451 82.8157 161.587C81.6072 169.529 77.6697 190.889 76.3929 195.56C75.5353 198.699 74.7069 201.83 74.3852 205.023C70.8132 208.07 66.0668 215.384 63.0796 219.045C58.2845 224.92 53.5722 230.868 48.8209 236.778C47.3736 238.577 52.2321 244.325 54.6297 242.662C64.2297 236.007 86.5631 223.414 89.331 215.232C91.2218 209.65 93.7314 204.301 95.7587 198.768C99.969 187.291 103.629 175.619 106.786 163.81C107.625 160.675 102.869 158.554 101.299 161.216L101.294 161.221Z" fill="#844919"/>
<path d="M200.238 158.837C202.996 154.926 224.877 187.676 226.314 192.298C227.279 195.408 228.215 198.504 228.648 201.683C232.323 204.603 237.322 211.751 240.436 215.305C245.436 221.01 250.348 226.792 255.304 232.536C256.815 234.286 252.156 240.2 249.7 238.62C239.871 232.302 217.119 220.488 214.068 212.409C211.987 206.9 209.292 201.634 207.075 196.179C202.47 184.853 198.406 173.317 194.844 161.621C193.898 158.52 198.576 156.233 200.238 158.841V158.837Z" fill="#844919"/>
<path d="M225.388 177.086C224.521 175.282 223.122 174.298 221.471 173.829C217.538 159.676 216.661 144.713 210.618 131.163C207.524 124.226 203.386 117.653 197.368 112.987C191.326 108.302 184.82 104.489 176.112 103.178C176.039 103.168 175.98 103.178 175.912 103.168C175.824 103.139 175.736 103.105 175.649 103.075C172.272 102.632 156.22 100.15 151.429 100.862C145.241 101.778 130.563 102.115 122.498 105.147C111.587 108.78 103.853 115.172 99.0825 120.627C94.0096 126.429 90.9688 133.904 88.2204 141.012C85.2673 148.652 82.3337 156.429 80.2772 164.371C79.3855 167.808 78.713 171.314 78.3572 174.848C77.9479 175.044 77.5483 175.282 77.1633 175.594C74.3126 177.91 72.7873 186.111 75.18 189.651C75.2141 190.158 75.4334 190.675 75.9158 191.133C78.6984 193.771 82.1436 194.887 85.8667 195.482C89.5069 196.062 94.2241 196.925 97.8497 195.916C101.485 194.907 102.021 190.484 102.455 187.271C102.65 185.804 102.806 184.409 102.606 183.191C103.892 177.408 105.403 171.689 107.138 166.033C107.24 166.789 107.299 167.472 107.299 168.062C107.299 173.24 107.026 178.417 106.48 183.571C105.92 188.836 104.769 194 104.151 199.251C103.571 204.17 104.053 208.895 106.358 213.331C108.517 217.49 109.862 221.293 113.141 224.569C114.179 225.608 115.456 225.554 116.421 224.96C116.85 225.077 117.303 225.15 117.771 225.184C121.012 225.442 124.369 225.184 127.619 225.159C134.349 225.12 141.079 225.081 147.814 225.042C160.542 224.969 171.828 224.028 183.923 228.187C185.346 228.675 185.985 221.639 187.641 220.63C197.846 214.404 194.011 204.511 193.694 195.579C193.343 185.648 192.242 175.789 194.425 165.936C196.145 171.148 197.778 176.384 199.308 181.65C198.669 182.708 198.289 183.937 198.289 185.365C198.284 188.344 199.649 192.649 202.305 194.575C203.269 195.906 204.59 196.769 206.427 196.72C209.624 196.632 212.986 195.838 216.081 195.087C219.229 194.321 223.006 193.551 225.778 191.801C230.583 188.768 227.25 180.958 225.388 177.081V177.086Z" fill="#FFB100"/>
<path d="M164.216 294.061C160.922 288.152 153.466 285.353 147.833 282.291C134.105 274.841 120.388 267.372 106.641 259.956C105.861 259.479 105.081 258.996 104.301 258.518C102.572 257.46 100.959 258.83 100.739 260.376C100.442 260.571 100.14 260.824 99.8329 261.161C97.869 263.32 92.6791 281.506 92.5086 282.179C91.4414 283.008 89.3947 289.575 91.8507 290.472C102.703 294.422 147.224 304.826 149.826 305.323C152.082 305.753 166.721 298.556 164.211 294.056L164.216 294.061Z" fill="#844919"/>
<path d="M163.978 105.747L140.836 102.705L141.226 80.1748H163.978V105.747Z" fill="#66340E"/>
<path d="M148.886 101.32C148.092 101.457 142.317 101.715 140.178 101.964C140.358 102.032 140.47 103.129 140.504 103.319C141.537 108.936 142.322 114.577 144.291 119.96C145.87 124.27 148.779 127.975 150.553 132.148C150.825 130.471 151.098 128.789 151.376 127.112C151.688 125.196 151.703 123.168 152.799 121.52C153.925 119.828 155.708 118.424 157.014 116.844C158.735 114.762 160.299 112.554 161.712 110.257C162.974 108.205 165.323 102.466 166.03 101.779C162.76 100.95 150.338 101.023 148.891 101.32H148.886Z" fill="#66340E"/>
<path d="M255.684 231.435C246.269 226.476 235.017 230.06 225.997 234.17C216.626 238.441 207.475 243.706 198.63 249.211C196.671 238.119 193.854 227.188 190.039 216.588C189.371 214.736 181.852 216.047 180.127 216.262C175.897 216.793 171.623 216.92 167.369 217.086C150.026 217.759 132.677 217.734 115.334 217.213C114.277 217.183 113.585 217.71 113.239 218.427C112.912 218.69 112.634 219.041 112.454 219.509C108.263 230.533 105.154 241.912 103.073 253.511C94.409 248.904 85.4717 244.55 76.1836 241.386C67.4022 238.397 57.9923 237.895 50.3074 243.784C43.719 248.831 39.8156 257.616 42.0475 265.861C44.3525 274.374 52.6075 279.425 59.7661 283.525C69.8242 289.283 80.4768 293.964 91.4754 297.606C92.8447 298.059 94.0289 297.064 94.5064 295.885C99.092 284.525 103.366 273.033 107.259 261.414C123.75 270.278 159.952 289.21 159.952 289.21C159.952 289.21 190.039 264.062 189.386 263.043C192.539 267.792 194.342 273.311 196.335 278.659C197.504 281.799 198.737 284.944 200.297 287.913C202.041 291.228 203.527 292.925 205.253 296.26C206.485 298.644 208.873 297.625 210.52 296.372C220.296 291.077 230.081 285.743 239.257 279.439C247.975 273.452 258.101 266.3 262.872 256.539C267.073 247.948 264.446 236.042 255.694 231.43L255.684 231.435Z" fill="#23276C"/>
<path d="M197.388 279.19C195.355 273.593 192.636 268.206 190.131 262.799C181.706 268.118 173.553 273.881 165.688 279.995C161.127 283.539 137.609 302.023 137.458 303.09C137.414 303.388 137.443 303.705 137.517 304.012C136.542 309.399 150.333 308.736 156.424 306.737C176.014 300.307 191.13 297.001 203.221 292.267C201.12 287.625 199.117 283.983 197.378 279.195L197.388 279.19Z" fill="#844919"/>
<path d="M151.332 211.333C145.201 211.996 139.076 212.698 132.955 213.434C127.03 214.151 120.787 215.599 114.813 215.014C114.413 214.975 114.067 215.019 113.77 215.131C113.492 214.892 113.127 214.707 112.649 214.629C112.508 214.604 112.371 214.585 112.23 214.56C110.846 214.336 107.104 214.809 107.104 214.809C107.104 214.809 110.325 223.721 113.814 224.282C117.927 224.945 122.069 223.463 126.065 222.62C130.533 221.679 135.104 221.269 139.558 220.25C143.817 219.275 147.911 217.725 151.985 216.184C154.368 215.287 154.314 211.011 151.327 211.333H151.332Z" fill="#FFB100"/>
<path d="M56.5899 232.873C53.7586 231.235 55.742 227.773 53.9633 229.733C48.5006 235.754 45.0699 238.894 43.0476 240.815C40.2017 243.516 37.9552 245.91 38.077 250.02C38.2281 255.008 41.2932 259.645 44.914 262.858C46.6829 264.428 49.2851 261.814 47.5065 260.235C44.6898 257.733 42.034 254.223 41.8049 250.318C41.7611 249.601 41.8244 248.923 41.9657 248.275C42.1217 252.219 43.8906 256.251 46.6244 258.884C48.6029 260.79 51.5657 257.807 49.6263 255.842C49.4118 255.627 49.2023 255.378 48.9976 255.125C50.1428 254.954 51.1759 253.979 50.786 252.531C50.5765 251.756 50.3865 250.976 50.2256 250.196C53.4029 247.929 57.0724 244.599 58.3637 241.025C59.5333 237.787 59.2945 234.438 56.5802 232.868L56.5899 232.873Z" fill="#844919"/>
<path d="M250.65 232.843C252.96 230.522 250.143 227.699 252.37 229.128C259.207 233.525 263.335 235.666 265.786 236.997C269.236 238.869 272.023 240.595 272.974 244.598C274.119 249.454 272.365 254.724 269.704 258.771C268.403 260.746 265.211 258.898 266.522 256.909C268.593 253.764 270.25 249.678 269.455 245.851C269.309 245.144 269.075 244.505 268.768 243.92C269.64 247.767 268.978 252.121 267.019 255.378C265.601 257.733 261.97 255.622 263.33 253.218C263.481 252.955 263.617 252.662 263.749 252.365C262.599 252.496 261.351 251.823 261.351 250.322C261.351 249.517 261.337 248.713 261.283 247.923C257.628 246.558 253.218 244.296 251.045 241.18C249.076 238.357 248.438 235.061 250.65 232.838V232.843Z" fill="#844919"/>
<path d="M240.437 215.306C245.437 221.01 250.349 226.793 255.305 232.536C256.815 234.286 252.157 240.2 249.701 238.621C239.872 232.302 217.119 220.489 214.069 212.41C211.988 206.9 237.323 211.752 240.437 215.306Z" fill="#844919"/>
<path d="M128.549 52.3351C128.549 52.3351 129.996 78.4974 133.924 86.2154C137.213 92.6755 147.973 99.277 151.628 99.3843C157.266 99.5452 165.926 92.8803 168.922 87.1271C172.704 79.8625 174.39 55.1434 174.39 55.1434L168.187 41.0969L131.278 38.6494L128.549 52.34V52.3351Z" fill="#844919"/>
<path d="M130.601 61.6332C130.435 61.5747 127.935 60.5362 125.742 61.5649C123.55 62.5985 124.261 68.4346 125.616 70.7797C128.189 75.2262 132.194 75.5041 132.194 75.5041L130.596 61.6283L130.601 61.6332Z" fill="#844919"/>
<path d="M182.378 40.6293C181.418 38.0209 179.99 35.6026 177.953 33.5208C175.448 30.9611 172.237 29.0986 168.782 28.1674C167.052 27.6994 165.614 27.4166 164.133 26.3196C162.715 25.2665 161.57 23.9501 160.005 23.0822C156.141 20.937 151.638 21.5415 147.642 23.4186C143.666 25.286 141.122 28.9475 137.959 31.7802C133.691 30.1274 129.09 32.8967 126.376 36.2121C121.688 41.9311 123.481 48.2742 124.744 54.866C125.163 57.0551 125.85 63.3933 129.734 61.1116C129.797 61.0726 129.851 61.0189 129.909 60.9751C129.929 60.9653 129.948 60.9458 129.968 60.9312C130.513 60.5168 130.889 59.9024 131.142 59.215C131.166 59.1711 131.191 59.1321 131.215 59.0882C133.359 55.5096 135.684 52.0333 137.453 48.245C138.393 46.2265 138.7 44.9296 140.352 43.9496C140.893 44.6858 141.595 45.3684 142.389 45.9925C145.727 48.6106 149.981 48.5278 153.919 49.459C159.206 50.7071 161.984 54.2663 164.474 58.7908C165.507 60.6679 166.457 62.4719 167.89 64.0613C169.791 66.1773 170.975 68.7126 171.447 71.5112C171.876 74.0221 171.043 77.8104 173.489 79.4827C174.327 80.0531 175.453 80.0726 176.403 79.7167C177.354 79.3608 178.143 78.6782 178.82 77.9225C181.778 74.6315 181.696 70.8383 182.553 66.777C183.079 64.2709 183.006 61.7015 183.362 59.1662C183.786 56.1141 184.093 53.0377 184.02 49.9514C183.942 46.7482 183.46 43.5742 182.383 40.6391L182.378 40.6293Z" fill="#FCF8F4"/>
<path d="M154.615 69.9561C154.43 68.8055 152.705 69.3028 152.87 70.4388C153.153 72.3208 154.128 75.8848 152.963 77.6546C152.018 79.088 150.648 78.7663 149.259 79.0588C148.865 79.1417 148.616 79.1368 148.333 79.4537C147.632 80.2387 148.592 81.3503 149.371 80.931C149.488 80.9408 149.683 80.931 149.971 80.9115C150.288 80.9018 150.604 80.8725 150.921 80.8237C151.457 80.736 152.003 80.5848 152.495 80.3459C153.489 79.8633 154.327 79.0832 154.795 78.0691C155.887 75.7239 155 72.3744 154.61 69.9561H154.615Z" fill="#66340E"/>
<path d="M142.725 67.2794C141.005 68.0058 139.266 68.5616 137.643 67.2745C136.746 66.5627 135.46 67.8108 136.366 68.5519C138.588 70.3802 140.947 70.0097 143.427 68.9419C144.363 68.5373 143.676 66.8747 142.725 67.2794Z" fill="#4B3E3A"/>
<path d="M166.161 67.1041C164.494 67.9379 162.793 68.6058 161.088 67.4259C160.147 66.7726 158.944 68.0987 159.894 68.7862C162.228 70.4634 164.557 69.9417 166.965 68.7179C167.871 68.2548 167.082 66.641 166.156 67.1041H166.161Z" fill="#4B3E3A"/>
<path d="M167.062 60.4287C165.747 59.122 163.51 59.356 161.809 59.6144C160.279 59.8485 157.721 60.3263 157.292 62.0181C157.214 62.3155 157.365 62.6909 157.652 62.8274C159.09 63.51 161.015 62.4228 162.545 62.2619C163.978 62.1107 165.527 62.4471 166.853 61.8036C167.355 61.5598 167.447 60.8187 167.062 60.4335V60.4287Z" fill="#FCF8F4"/>
<path d="M145.523 61.2337C144.475 59.6979 142.238 59.5028 140.523 59.4346C138.978 59.3712 136.376 59.3566 135.635 60.9363C135.504 61.2142 135.582 61.614 135.835 61.7992C137.117 62.7451 139.212 62.043 140.747 62.1698C142.185 62.2917 143.642 62.9206 145.065 62.5354C145.601 62.3892 145.835 61.6822 145.528 61.2337H145.523Z" fill="#FCF8F4"/>
<path d="M155.492 86.6109C155.463 86.3915 155.151 86.2843 154.937 86.2794C152.125 86.2453 149.303 86.3477 146.511 86.8401C146.355 86.8694 146.306 87.0449 146.34 87.196C146.331 87.3277 146.37 87.4642 146.482 87.5276C148.733 88.805 153.134 90.175 155.146 87.4691C155.287 87.2789 155.521 86.8547 155.487 86.6061L155.492 86.6109Z" fill="#66340E"/>
</g>
</g>
</g>
<defs>
<clipPath id="clip0_240_2079">
<rect width="357" height="267.76" fill="white" transform="translate(0 0.504883)"/>
</clipPath>
<clipPath id="clip1_240_2079">
<rect width="357" height="268" fill="white" transform="translate(0 0.507812)"/>
</clipPath>
<clipPath id="clip2_240_2079">
<rect width="310.144" height="300.383" fill="white" transform="translate(23.4277 21.7217)"/>
</clipPath>
</defs>
</svg>
